<?xml version="1.0" encoding="UTF-8"?>
<svg id="Layer_2" data-name="Layer 2" xmlns="http://www.w3.org/2000/svg" viewBox="0 0 245.68 86.28">
  <defs>
    <style>
      .cls-1 {
        fill: #6abd45;
      }

      .cls-1, .cls-2, .cls-3 {
        stroke: #dad9d9;
        stroke-miterlimit: 10;
      }

      .cls-2 {
        fill: #ed2024;
      }

      .cls-3 {
        fill: #3953a4;
      }

      .cls-4 {
        fill: #dad9d9;
        stroke-width: 0px;
      }
    </style>
  </defs>
  <g id="Layer_1-2" data-name="Layer 1">
    <g>
      <rect class="cls-2" x="25.6" y="6.92" width="30" height="30" transform="translate(27.39 -22.29) rotate(45)"/>
      <path class="cls-1" d="M46.82,28.14h24.38c3.1,0,5.63,2.52,5.63,5.63v24.38h-30v-30h0Z" transform="translate(48.61 -31.08) rotate(45)"/>
      <rect class="cls-3" x="25.6" y="49.35" width="30" height="30" transform="translate(57.4 -9.86) rotate(45)"/>
      <path class="cls-1" d="M4.38,28.14h30v30H10.01c-3.1,0-5.63-2.52-5.63-5.63v-24.38h0Z" transform="translate(36.18 -1.07) rotate(45)"/>
    </g>
    <g>
      <path class="cls-4" d="M140.78,46.21c-.27.64-.64,1.21-1.1,1.69-.47.48-1.02.86-1.67,1.14-.64.28-1.34.42-2.09.42h-15.22v7.55h-9.48v-28.15h24.7c.75,0,1.45.14,2.09.42.64.28,1.2.66,1.67,1.14.47.48.84,1.03,1.1,1.65.27.62.4,1.26.4,1.93v10.28c0,.67-.13,1.31-.4,1.93ZM120.7,42.56h11.04c.29,0,.54-.09.72-.28s.28-.43.28-.72v-4.78c0-.29-.09-.54-.28-.72-.19-.19-.43-.28-.72-.28h-11.04v6.79Z"/>
      <path class="cls-4" d="M144.19,28.86h9.8v28.15h-9.8v-28.15Z"/>
      <path class="cls-4" d="M188.37,57.01h-10.08l-3.9-10.28h-2.37l-3.94,10.28h-10.04l5.7-14.1-5.7-14.06h10.04l3.94,10.28h2.37l3.9-10.28h10.08l-5.7,14.06,5.7,14.1Z"/>
      <path class="cls-4" d="M217.37,35.77h-16.47v3.7h14.74v6.91h-14.74v3.73h16.47v6.91h-25.78v-28.15h25.78v6.91Z"/>
      <path class="cls-4" d="M245.68,57.01h-25.1v-28.15h9.8v21.25h15.3v6.91Z"/>
    </g>
  </g>
</svg>